Coordinates
version=1
nRows=5
nColumns=40
inDegrees=yes

Units are S.I. units (second, meters, Newtons, ...)
Angles are in degrees.

endheader
time	pelvis_tilt	pelvis_list	pelvis_rotation	pelvis_tx	pelvis_ty	pelvis_tz	hip_flexion_r	hip_adduction_r	hip_rotation_r	knee_angle_r	knee_angle_r_beta	ankle_angle_r	subtalar_angle_r	mtp_angle_r	hip_flexion_l	hip_adduction_l	hip_rotation_l	knee_angle_l	knee_angle_l_beta	ankle_angle_l	subtalar_angle_l	mtp_angle_l	lumbar_extension	lumbar_bending	lumbar_rotation	arm_flex_r	arm_add_r	arm_rot_r	elbow_flex_r	pro_sup_r	wrist_flex_r	wrist_dev_r	arm_flex_l	arm_add_l	arm_rot_l	elbow_flex_l	pro_sup_l	wrist_flex_l	wrist_dev_l
     18.97328571	     -3.05026591	     -5.68436263	      6.61803147	      1.05446733	      0.92657742	      0.47957598	      0.20950550	      3.80988762	    -17.67410469	      9.39778002	      9.39778002	     14.74498852	      7.74644820	     -4.78174704	     28.17956455	     -8.84053772	     -1.90792492	     22.57935488	     22.57935488	      4.42599456	     -9.13178057	      4.89195512	     -8.66781447	      6.60660411	      3.83002154	     51.62962411	    -22.80801853	     -3.32975708	     76.80682108	     45.04628908	      0.00000000	      0.00000000	    -11.67704717	     -6.75397314	     -0.39353019	     25.19458513	     44.89990383	      0.00000000	      0.00000000
     18.98657143	     -2.98380641	     -5.70832322	      6.46905433	      1.05557572	      0.92578372	      0.47735782	     -0.26674705	      3.69729173	    -17.47253160	      9.52435643	      9.52435643	     15.09113323	      7.78928149	     -4.84630823	     27.63780907	     -8.69762160	     -1.78062139	     23.27174320	     23.27174320	      4.44712874	     -9.53683746	      4.86208481	     -8.55216900	      6.60915821	      3.82343133	     51.41720663	    -22.74246156	     -3.54508005	     76.85015944	     45.05351050	      0.00000000	      0.00000000	    -11.92083835	     -6.75950544	     -0.34328214	     25.13981598	     44.89389385	      0.00000000	      0.00000000
     18.99985714	     -2.91598950	     -5.73676084	      6.33360935	      1.05667288	      0.92514166	      0.47500558	     -0.71769197	      3.56886038	    -17.28543797	      9.69210615	      9.69210615	     15.39119664	      7.80413773	     -4.88289210	     27.13218672	     -8.55606005	     -1.58646664	     23.86907273	     23.86907273	      4.59594645	     -9.98345740	      4.79186387	     -8.44007667	      6.60645520	      3.73670635	     50.98793808	    -22.66840088	     -3.70799388	     76.85924550	     45.05812332	      0.00000000	      0.00000000	    -12.12824919	     -6.76944703	     -0.31726449	     25.07968515	     44.88988120	      0.00000000	      0.00000000
     19.01314286	     -2.96618206	     -5.72444127	      6.26462334	      1.05748483	      0.92450340	      0.47240989	     -0.88891714	      3.32563777	    -17.13494540	     10.15078540	     10.15078540	     15.87943154	      7.71123336	     -4.41487895	     26.80971902	     -8.19686639	     -0.84183431	     24.34983394	     24.34983394	      4.71583435	    -11.24306608	      5.06621175	     -8.27054846	      6.55032204	      3.74020523	     50.16343281	    -22.41820303	     -4.99977370	     77.48401394	     45.08586968	      0.00000000	      0.00000000	    -12.09537631	     -6.85394649	     -0.13518567	     25.16711465	     44.88737661	      0.00000000	      0.00000000
     19.02642857	     -2.89173267	     -5.68272089	      6.20251314	      1.05831707	      0.92423941	      0.46973445	     -1.28782921	      3.08197698	    -16.99640897	     10.40628095	     10.40628095	     16.09481952	      7.69741803	     -4.36119586	     26.42339064	     -7.98840984	     -0.64266061	     24.84813092	     24.84813092	      5.11709353	    -11.55229041	      4.88865410	     -8.23912386	      6.46440789	      3.56031176	     49.45772851	    -22.36485531	     -5.14531278	     77.43973854	     45.09075127	      0.00000000	      0.00000000	    -11.98737929	     -6.92897891	     -0.10192558	     25.17373052	     44.88966366	      0.00000000	      0.00000000
